<?xml version="1.0" standalone="no"?>
<!DOCTYPE svg PUBLIC "-//W3C//DTD SVG 20010904//EN"
 "http://www.w3.org/TR/2001/REC-SVG-20010904/DTD/svg10.dtd">
<svg version="1.0" xmlns="http://www.w3.org/2000/svg"
 width="250.000000pt" height="250.000000pt" viewBox="0 0 250.000000 250.000000"
 preserveAspectRatio="xMidYMid meet">
<metadata>
Created by potrace 1.14, written by Peter Selinger 2001-2017
</metadata>
<g transform="translate(0.000000,250.000000) scale(0.100000,-0.100000)"
fill="#000000" stroke="none">
<path d="M828 2113 l-388 -3 0 -49 0 -48 80 -7 c124 -11 122 -8 131 -217 18
-413 3 -1191 -23 -1246 -12 -26 -18 -29 -101 -37 l-87 -9 0 -51 0 -51 390 -1
390 -1 0 52 0 52 -81 6 c-55 3 -86 10 -99 22 -23 21 -27 67 -35 358 l-5 217
72 0 c100 0 146 -15 188 -60 36 -38 364 -569 383 -619 l10 -28 234 0 233 -1 0
48 c0 50 -9 60 -53 60 -29 0 -64 31 -124 110 -86 111 -458 678 -451 685 2 2
40 22 83 44 197 99 295 254 283 448 -9 137 -85 248 -200 291 -67 25 -225 43
-352 40 -50 -2 -265 -4 -478 -5z m524 -166 c101 -59 150 -152 149 -280 0 -87
-18 -150 -61 -218 -66 -102 -126 -127 -307 -130 l-128 -1 4 313 c2 175 8 322
13 333 9 17 21 18 147 14 127 -3 139 -5 183 -31z"/>
</g>
</svg>
